<?xml version="1.0" encoding="UTF-8"?>
<svg width="50px" height="50px" viewBox="0 0 50 50" version="1.1" xmlns="http://www.w3.org/2000/svg" xmlns:xlink="http://www.w3.org/1999/xlink">
    <!-- Generator: Sketch 47.1 (45422) - http://www.bohemiancoding.com/sketch -->
    <title>添加2</title>
    <desc>Created with Sketch.</desc>
    <defs></defs>
    <g id="icon" stroke="none" stroke-width="1" fill="none" fill-rule="evenodd">
        <g id="添加2" fill-rule="nonzero" fill="#000000">
            <g id="Group-9" transform="translate(9.000000, 9.000000)">
                <path d="M16.5,33 C7.38730163,33 0,25.6126984 0,16.5 C0,7.38730163 7.38730163,0 16.5,0 C25.6126984,0 33,7.38730163 33,16.5 C33,25.6126984 25.6126984,33 16.5,33 Z M16.5,30 C23.9558441,30 30,23.9558441 30,16.5 C30,9.04415588 23.9558441,3 16.5,3 C9.04415588,3 3,9.04415588 3,16.5 C3,23.9558441 9.04415588,30 16.5,30 Z" id="Oval-4"></path>
                <g id="Group-8" transform="translate(7.500000, 7.500000)">
                    <polygon id="Path-3" points="10.5 17.5271195 10.5 4.56070708e-16 7.5 -2.28035354e-16 7.5 17.5271195"></polygon>
                    <polygon id="Path-3-Copy" points="17.5271195 7.5 6.08094277e-16 7.5 -3.04047138e-16 10.5 17.5271195 10.5"></polygon>
                </g>
            </g>
        </g>
    </g>
</svg>