<?xml version="1.0" encoding="UTF-8"?>
<svg width="199px" height="27px" viewBox="0 0 199 27" version="1.1" xmlns="http://www.w3.org/2000/svg" xmlns:xlink="http://www.w3.org/1999/xlink">
    <!-- Generator: Sketch 47.1 (45422) - http://www.bohemiancoding.com/sketch -->
    <title>Page 1</title>
    <desc>Created with Sketch.</desc>
    <defs>
        <polygon id="path-1" points="0.048130651 0.160211921 8.0331406 0.160211921 8.0331406 21.0331967 0.048130651 21.0331967 0.048130651 0.160211921"></polygon>
        <polygon id="path-3" points="10.6020579 0.144709272 10.6020579 15.6922391 0.0466552441 15.6922391 0.0466552441 0.144709272 10.6020579 0.144709272"></polygon>
    </defs>
    <g id="Main-page" stroke="none" stroke-width="1" fill="none" fill-rule="evenodd">
        <g id="Login" transform="translate(-611.000000, -267.000000)">
            <g id="Group" transform="translate(447.000000, 169.000000)">
                <g id="Group-2">
                    <g id="Page-1" transform="translate(164.000000, 98.000000)">
                        <g id="Group-3" transform="translate(80.427667, 0.018596)">
                            <mask id="mask-2" fill="white">
                                <use xlink:href="#path-1"></use>
                            </mask>
                            <g id="Clip-2"></g>
                            <path d="M8.0331406,1.04264702 L7.77224548,2.84950132 C7.07412613,2.19810397 6.41721022,1.87177947 5.80149774,1.87177947 C5.40961528,1.87177947 5.07441004,2.05595166 4.79534222,2.42465364 C4.51447514,2.79228278 4.29478345,3.53791192 4.13842631,4.65939536 L3.92215325,6.24631589 L7.04749684,6.24631589 L6.84309901,7.90619007 L3.70012251,7.90619007 L1.92297694,21.0331967 L0.048130651,21.0331967 L1.83355289,7.90619007 L0.048130651,7.90619007 L0.252888336,6.24631589 L2.06008183,6.24631589 L2.23749051,4.94352119 C2.45754204,3.41220993 2.69522649,2.38799801 2.94406646,1.87177947 C3.19398599,1.35556093 3.56229792,0.94162053 4.05332052,0.62888543 C4.54362342,0.315971523 5.0839462,0.160050993 5.67626808,0.160050993 C6.4528359,0.160050993 7.23768038,0.455441722 8.0331406,1.04264702" id="Fill-1" fill="#282740" mask="url(#mask-2)"></path>
                        </g>
                        <path d="M97.4426171,5.88521325 C98.7098476,5.88521325 99.8723603,6.1857894 100.929615,6.78819338 C101.98651,7.39184901 102.811119,8.22920662 103.40488,9.30402119 C103.995763,10.3761536 104.292463,11.5931205 104.292463,12.9533126 C104.292463,14.5023258 103.914435,15.9420874 103.158919,17.268306 C102.401244,18.595955 101.384292,19.6201669 100.108785,20.3454119 C98.8321985,21.0694053 97.3875592,21.4325642 95.7754073,21.4325642 C93.7785701,21.4325642 92.1349308,20.7836702 90.8457491,19.4835576 C89.5562075,18.1832662 88.9118865,16.5280411 88.9118865,14.516094 C88.9118865,12.9384715 89.2897346,11.4851205 90.0457907,10.1537166 C90.8031062,8.8205245 91.8391297,7.77700132 93.1574598,7.0204649 C94.4725511,6.26357086 95.9017165,5.88521325 97.4426171,5.88521325 M97.3960158,7.69224636 C96.2093929,7.69224636 95.0936614,7.98745828 94.0491813,8.57609404 C93.0045212,9.16616026 92.2006044,9.97186887 91.6397699,11.0018026 C91.0791153,12.0315576 90.798788,13.1653788 90.798788,14.4079152 C90.798788,15.9651536 91.2811741,17.2312927 92.2486451,18.2050808 C93.216476,19.1788689 94.4658938,19.666657 95.9994173,19.666657 C97.1937771,19.666657 98.2792807,19.3837828 99.2499905,18.8169616 C100.223039,18.2515709 100.995469,17.4347762 101.571417,16.3640742 C102.145746,15.2958755 102.433091,14.1513258 102.433091,12.9275642 C102.433091,11.901743 102.218797,10.9937563 101.78949,10.2012795 C101.360902,9.4077298 100.753286,8.79173642 99.970061,8.35061722 C99.1839571,7.91235894 98.3266017,7.69224636 97.3960158,7.69224636" id="Fill-4" fill="#282740"></path>
                        <path d="M108.286426,6.26482252 L110.204994,6.26482252 L109.946618,8.12657086 C110.456713,7.42063709 111.072426,6.86865695 111.794116,6.47545828 C112.515806,6.08082914 113.253689,5.88521325 114.010645,5.88521325 C114.549528,5.88521325 115.110362,6.0123457 115.696027,6.26482252 L114.791351,8.00516026 C114.31994,7.81508742 113.924459,7.71978278 113.604008,7.71978278 C112.940255,7.71978278 112.283159,7.95062384 111.6329,8.41337881 C110.980303,8.87631258 110.453655,9.54845166 110.048457,10.4308689 C109.64434,11.3159682 109.300858,12.7693192 109.020171,14.7891338 L108.15058,21.0517033 L106.274475,21.0517033 L108.286426,6.26482252 Z" id="Fill-6" fill="#282740"></path>
                        <path d="M0,6.26482252 L3.73277939,6.26482252 L3.73277939,7.9654649 C4.37224231,7.26614702 5.07989783,6.74581589 5.86186347,6.4017894 C6.64131013,6.05758411 7.49056872,5.88521325 8.41287794,5.88521325 C9.34346383,5.88521325 10.1815669,6.11212053 10.9307857,6.56414702 C11.6783852,7.01760397 12.2786239,7.68026623 12.7363599,8.54855762 C13.3288617,7.68026623 14.0557694,7.01760397 14.9178029,6.56414702 C15.7794765,6.11212053 16.7221175,5.88521325 17.7432071,5.88521325 C18.8015416,5.88521325 19.730868,6.12982252 20.5333454,6.61886225 C21.3376221,7.10933245 21.9144702,7.74696159 22.2651492,8.53639868 C22.6172676,9.3244053 22.7916175,10.605743 22.7916175,12.3825576 L22.7916175,21.0517033 L19.0323888,21.0517033 L19.0323888,13.5501735 C19.0323888,11.8745642 18.8222333,10.7394914 18.4030018,10.1465642 C17.9841302,9.55113377 17.3561826,9.25484901 16.5161004,9.25484901 C15.8784367,9.25484901 15.3066266,9.43776954 14.7995904,9.80003444 C14.2952532,10.1617629 13.9184846,10.6642132 13.6721637,11.3007695 C13.4263825,11.9400079 13.3040316,12.9658291 13.3040316,14.3807364 L13.3040316,21.0517033 L9.54408318,21.0517033 L9.54408318,13.890445 C9.54408318,12.5697695 9.44476311,11.6081404 9.24990145,11.0152132 C9.05198101,10.4228225 8.75779928,9.9815245 8.3644774,9.69185563 C7.97151537,9.40111391 7.4975859,9.25484901 6.94070976,9.25484901 C6.31833996,9.25484901 5.75480651,9.43937881 5.24759042,9.80682914 C4.73875497,10.172849 4.36126673,10.6874583 4.10972785,11.3499417 C3.85764919,12.0111735 3.73277939,13.0530874 3.73277939,14.4765775 L3.73277939,21.0517033 L0,21.0517033 L0,6.26482252 Z" id="Fill-8" fill="#59C0ED"></path>
                        <path d="M37.3256887,6.26482252 L41.0584681,6.26482252 L41.0584681,21.0517033 L37.3256887,21.0517033 L37.3256887,19.4901735 C36.5987809,20.1787629 35.8675549,20.6744185 35.1336299,20.9778556 C34.4009645,21.2809351 33.6065838,21.4325642 32.750308,21.4325642 C30.83012,21.4325642 29.168488,20.6922993 27.7666715,19.2117695 C26.3634156,17.7296305 25.6640368,15.8870146 25.6640368,13.6869616 C25.6640368,11.404657 26.340205,9.53343179 27.6981191,8.0734649 C29.0558533,6.61474967 30.7023713,5.88521325 32.6405522,5.88521325 C33.5337131,5.88521325 34.3705567,6.05204106 35.1543216,6.38784238 C35.9373668,6.72274967 36.6621155,7.22663046 37.3256887,7.89698146 L37.3256887,6.26482252 Z M33.4018261,9.30956424 C32.2486697,9.30956424 31.2905549,9.71527947 30.5267619,10.5265311 C29.7640486,11.3377828 29.3829618,12.3771934 29.3829618,13.6460146 C29.3829618,14.9259219 29.7694464,15.9748093 30.5472737,16.7983987 C31.3238415,17.6230609 32.2788976,18.0355709 33.4155006,18.0355709 C34.5879093,18.0355709 35.5595187,17.6300344 36.3305088,16.818604 C37.1029382,16.0089616 37.4894229,14.9475576 37.4894229,13.6322464 C37.4894229,12.3457232 37.1029382,11.3048821 36.3305088,10.5057894 C35.5595187,9.70973642 34.5825115,9.30956424 33.4018261,9.30956424 L33.4018261,9.30956424 Z" id="Fill-10" fill="#59C0ED"></path>
                        <path d="M55.8097299,0.558524503 L59.5439487,0.558524503 L59.5439487,21.0517033 L55.8097299,21.0517033 L55.8097299,19.4901735 C55.0826422,20.1789417 54.3515961,20.6731669 53.6189307,20.9778556 C52.886625,21.2809351 52.0920645,21.4325642 51.2359686,21.4325642 C49.3143411,21.4325642 47.6528891,20.6922993 46.252512,19.2103391 C44.8492561,17.7296305 44.148258,15.8871934 44.148258,13.6855311 C44.148258,11.404657 44.8256856,9.53343179 46.1835997,8.07471656 C47.5398945,6.61331921 49.187852,5.88521325 51.1260328,5.88521325 C52.0190138,5.88521325 52.8560373,6.05204106 53.6396223,6.38802119 C54.4230274,6.72382252 55.1461567,7.22663046 55.8097299,7.89698146 L55.8097299,0.558524503 Z M51.8873068,9.31081589 C50.7341504,9.31081589 49.7745961,9.71527947 49.0120627,10.5265311 C48.2480898,11.3377828 47.867003,12.378445 47.867003,13.6460146 C47.867003,14.9228821 48.254927,15.9748093 49.0325744,16.7983987 C49.8089623,17.6232397 50.7641983,18.0355709 51.8997218,18.0355709 C53.0721305,18.0355709 54.0437399,17.6300344 54.8159894,16.8187828 C55.588239,16.0089616 55.9759831,14.9475576 55.9759831,13.6322464 C55.9759831,12.3457232 55.588239,11.3036305 54.8159894,10.5073987 C54.0437399,9.70830596 53.0679921,9.31081589 51.8873068,9.31081589 L51.8873068,9.31081589 Z" id="Fill-12" fill="#59C0ED"></path>
                        <path d="M78.2191631,14.7344543 L66.2286034,14.7344543 C66.4018738,15.784951 66.8650076,16.6192689 67.6171052,17.242057 C68.368843,17.8623417 69.3282174,18.171143 70.4952282,18.171143 C71.8900275,18.171143 73.0870863,17.6862159 74.0905429,16.7176132 L77.2351387,18.1845536 C76.4515537,19.2908384 75.513051,20.1078119 74.4189108,20.6376199 C73.3247707,21.1677854 72.0260528,21.4326 70.5225772,21.4326 C68.1885555,21.4326 66.2876197,20.7003815 64.8199497,19.2377325 C63.3538991,17.7761563 62.6199741,15.9433748 62.6199741,13.7401033 C62.6199741,11.4851563 63.3508403,9.61250066 64.8132924,8.11981192 C66.277004,6.6298053 68.1119063,5.88524901 70.3163801,5.88524901 C72.6601179,5.88524901 74.5644723,6.6298053 76.0323222,8.11981192 C77.4990926,9.61250066 78.2326577,11.5793881 78.2326577,14.0269113 L78.2191631,14.7344543 Z M74.4865637,11.8116596 C74.2404226,10.9866397 73.7537183,10.3162887 73.0282499,9.79989139 C72.3024217,9.28367285 71.4596405,9.02547417 70.500626,9.02547417 C69.4602843,9.02547417 68.5473313,9.31496424 67.7630266,9.89412318 C67.2691251,10.2558517 66.8130085,10.8950901 66.3925175,11.8116596 L74.4865637,11.8116596 Z" id="Fill-14" fill="#59C0ED"></path>
                        <path d="M127.780815,6.26482252 L131.49992,6.26482252 L131.49992,18.9315775 C131.49992,21.4325642 130.993783,23.272498 129.98241,24.4481603 C128.624496,26.0422331 126.576919,26.8397166 123.843278,26.8397166 C122.386403,26.8397166 121.158757,26.6584053 120.166636,26.2961404 C119.172715,25.9344119 118.333353,25.4004914 117.649988,24.7008159 C116.966982,23.9975642 116.459946,23.1439351 116.132837,22.1401073 L120.247603,22.1401073 C120.613396,22.5552993 121.082288,22.8694649 121.656257,23.082604 C122.231126,23.2955642 122.908733,23.4021338 123.693038,23.4021338 C124.695415,23.4021338 125.50329,23.2478225 126.113605,22.9404517 C126.72374,22.6318291 127.155206,22.2345179 127.405306,21.7452993 C127.655945,21.2550079 127.780815,20.4137166 127.780815,19.2185642 C127.125158,19.8699616 126.436575,20.3384384 125.716505,20.6241735 C124.997874,20.9082993 124.179563,21.0517033 123.269668,21.0517033 C121.273011,21.0517033 119.586549,20.3371868 118.210822,18.9043987 C116.833656,17.4732199 116.146512,15.6618954 116.146512,13.4697099 C116.146512,11.1217828 116.875219,9.23696821 118.333353,7.81508742 C119.656721,6.52731258 121.233067,5.88521325 123.063831,5.88521325 C123.920107,5.88521325 124.729781,6.04095497 125.491055,6.35369007 C126.252509,6.66660397 127.015223,7.18157086 127.780815,7.89698146 L127.780815,6.26482252 Z M123.91165,9.35194172 C122.735283,9.35194172 121.765113,9.74245828 120.999341,10.5265311 C120.233929,11.3104252 119.852122,12.2963722 119.852122,13.4834781 C119.852122,14.7154649 120.243465,15.7260874 121.02723,16.5128424 C121.811535,17.3024583 122.795739,17.695657 123.980563,17.695657 C125.138037,17.695657 126.093093,17.3105046 126.844831,16.5416305 C127.596569,15.7709682 127.972978,14.759094 127.972978,13.510657 C127.972978,12.2786702 127.595129,11.2775245 126.839613,10.5057894 C126.081938,9.73566358 125.107809,9.35194172 123.91165,9.35194172 L123.91165,9.35194172 Z" id="Fill-16" fill="#59C0ED"></path>
                        <path d="M142.2599,5.88521325 C143.663156,5.88521325 144.982566,6.23370993 146.217949,6.93159735 C147.453872,7.62948477 148.417205,8.57609404 149.109746,9.77249801 C149.802828,10.9674715 150.149009,12.2609682 150.149009,13.6460146 C150.149009,15.0419682 149.800849,16.3463722 149.104169,17.5588689 C148.40479,18.7733325 147.455132,19.7226238 146.252315,20.4069219 C145.050038,21.0912199 143.722172,21.4325642 142.273755,21.4325642 C140.140532,21.4325642 138.319484,20.6787099 136.81169,19.1708225 C135.302817,17.6627563 134.54946,15.8299748 134.54946,13.6733722 C134.54946,11.3624583 135.400518,9.43651788 137.105692,7.89698146 C138.601251,6.5546702 140.3192,5.88521325 142.2599,5.88521325 M142.321615,9.37912053 C141.163061,9.37912053 140.196849,9.77804106 139.426219,10.5810675 C138.65325,11.384094 138.268565,12.4099152 138.268565,13.659604 C138.268565,14.9475576 138.649651,15.9882199 139.410925,16.7846305 C140.173819,17.5837232 141.138591,17.9824649 142.3092,17.9824649 C143.476031,17.9824649 144.44944,17.5781801 145.225648,16.7722927 C146.002216,15.9651536 146.38888,14.928604 146.38888,13.659604 C146.38888,12.3909616 146.007793,11.3610278 145.24508,10.5674781 C144.483626,9.77535894 143.509138,9.37912053 142.321615,9.37912053" id="Fill-18" fill="#59C0ED"></path>
                        <path d="M160.184834,5.88521325 C161.58755,5.88521325 162.9075,6.23370993 164.142883,6.93159735 C165.377007,7.62948477 166.341959,8.57609404 167.0345,9.77249801 C167.727042,10.9674715 168.073763,12.2609682 168.073763,13.6460146 C168.073763,15.0419682 167.724703,16.3463722 167.027303,17.5588689 C166.329364,18.7733325 165.379706,19.7226238 164.177069,20.4069219 C162.973353,21.0912199 161.646926,21.4325642 160.198149,21.4325642 C158.065466,21.4325642 156.244418,20.6787099 154.735365,19.1708225 C153.227571,17.6627563 152.472954,15.8299748 152.472954,13.6733722 C152.472954,11.3624583 153.324732,9.43651788 155.030626,7.89698146 C156.524386,6.5546702 158.242515,5.88521325 160.184834,5.88521325 M160.24511,9.37912053 C159.086556,9.37912053 158.121604,9.77804106 157.349354,10.5810675 C156.578364,11.384094 156.191879,12.4099152 156.191879,13.659604 C156.191879,14.9475576 156.574046,15.9882199 157.335679,16.7846305 C158.098033,17.5837232 159.062985,17.9824649 160.232695,17.9824649 C161.400965,17.9824649 162.373654,17.5781801 163.149322,16.7722927 C163.92553,15.9651536 164.313094,14.928604 164.313094,13.659604 C164.313094,12.3909616 163.932907,11.3610278 163.171274,10.5674781 C162.406941,9.77535894 161.432632,9.37912053 160.24511,9.37912053" id="Fill-20" fill="#59C0ED"></path>
                        <path d="M182.10051,0.558524503 L185.833469,0.558524503 L185.833469,21.0517033 L182.10051,21.0517033 L182.10051,19.4901735 C181.372163,20.1789417 180.641116,20.6731669 179.908451,20.9778556 C179.177585,21.2809351 178.381585,21.4325642 177.526569,21.4325642 C175.605301,21.4325642 173.943669,20.6922993 172.543112,19.2103391 C171.139856,17.7296305 170.438858,15.8871934 170.438858,13.6855311 C170.438858,11.404657 171.116465,9.53343179 172.47438,8.07471656 C173.830674,6.61331921 175.477012,5.88521325 177.416633,5.88521325 C178.309974,5.88521325 179.146997,6.05204106 179.929323,6.38802119 C180.712188,6.72382252 181.436757,7.22663046 182.10051,7.89698146 L182.10051,0.558524503 Z M178.177907,9.31081589 C177.023671,9.31081589 176.065556,9.71527947 175.301583,10.5265311 C174.53887,11.3377828 174.157963,12.378445 174.157963,13.6460146 C174.157963,14.9228821 174.545527,15.9748093 175.321915,16.7983987 C176.098663,17.6232397 177.054978,18.0355709 178.190322,18.0355709 C179.36273,18.0355709 180.33452,17.6300344 181.106589,16.8187828 C181.879379,16.0089616 182.264244,14.9475576 182.264244,13.6322464 C182.264244,12.3457232 181.879379,11.3036305 181.106589,10.5073987 C180.33452,9.70830596 179.357333,9.31081589 178.177907,9.31081589 L178.177907,9.31081589 Z" id="Fill-22" fill="#59C0ED"></path>
                        <g id="Group-26" transform="translate(188.384268, 5.740450)">
                            <mask id="mask-4" fill="white">
                                <use xlink:href="#path-3"></use>
                            </mask>
                            <g id="Clip-25"></g>
                            <path d="M10.3284419,2.59098079 L8.01817061,4.88723245 C7.07912812,3.9636894 6.22717061,3.50200728 5.46049882,3.50200728 C5.04126736,3.50200728 4.71415886,3.59087483 4.47755398,3.76717947 C4.24022939,3.9433053 4.12183698,4.16323907 4.12183698,4.42680199 C4.12183698,4.62474238 4.19614711,4.80766291 4.34728635,4.97717285 C4.49698617,5.14382185 4.86799702,5.37323245 5.46049882,5.66415298 L6.82758924,6.3418351 C8.26827007,7.04937815 9.25787224,7.77033179 9.79531618,8.50380199 C10.3327601,9.23727219 10.6021118,10.100557 10.6021118,11.0852523 C10.6021118,12.3991331 10.1164871,13.4945106 9.14631709,14.3740669 C8.17470769,15.2523715 6.87473029,15.6922391 5.24188671,15.6922391 C3.07303861,15.6922391 1.34123481,14.8495172 0.0466552441,13.1638947 L2.34307206,10.6782854 C2.78191564,11.1850272 3.29452957,11.5959278 3.88271311,11.9086629 C4.46945723,12.2188947 4.99196718,12.3769609 5.44790389,12.3769609 C5.93874656,12.3769609 6.33620678,12.2584113 6.63686591,12.0236364 C6.93626555,11.7874311 7.08776465,11.5167159 7.08776465,11.2080934 C7.08776465,10.6371596 6.54618237,10.0814245 5.46049882,9.53641788 L4.20406392,8.91219934 C1.7977113,7.70596093 0.593635353,6.19843113 0.593635353,4.3844245 C0.593635353,3.2166298 1.047233,2.21691457 1.95424837,1.38796093 C2.8616236,0.558649669 4.02143734,0.144709272 5.43404946,0.144709272 C6.40080081,0.144709272 7.30889575,0.353735762 8.16265253,0.775901325 C9.01461004,1.19913974 9.73611998,1.80297417 10.3284419,2.59098079" id="Fill-24" fill="#59C0ED" mask="url(#mask-4)"></path>
                        </g>
                    </g>
                </g>
            </g>
        </g>
    </g>
</svg>