<?xml version="1.0" encoding="UTF-8"?>
<svg width="50px" height="50px" viewBox="0 0 50 50" version="1.1" xmlns="http://www.w3.org/2000/svg" xmlns:xlink="http://www.w3.org/1999/xlink">
    <!-- Generator: Sketch 47.1 (45422) - http://www.bohemiancoding.com/sketch -->
    <title>母公司</title>
    <desc>Created with Sketch.</desc>
    <defs></defs>
    <g id="icon" stroke="none" stroke-width="1" fill="none" fill-rule="evenodd">
        <g id="母公司" fill-rule="nonzero" fill="#000000">
            <path d="M14.4641668,21.3687336 C11.225088,21.3687336 8.6,18.7336826 8.6,15.4840391 C8.6,12.2346661 11.2251235,9.6 14.4641668,9.6 C17.7032103,9.6 20.3285948,12.2347975 20.3285948,15.4840391 C20.3285948,18.7335512 17.7032458,21.3687336 14.4641668,21.3687336 Z M11.0142393,15.4840828 C11.0142393,17.3955343 12.5584603,18.9455983 14.4641668,18.9455983 C16.3698591,18.9455983 17.9140942,17.3955048 17.9140942,15.4840828 C17.9140942,13.5731658 16.3699266,12.0236597 14.4641668,12.0236597 C12.5584951,12.0236597 11.0142393,13.5732084 11.0142393,15.4840828 Z M35.5358332,39.4 C32.2967027,39.4 29.6714052,36.7652463 29.6714052,33.5159609 C29.6714052,30.266398 32.2967178,27.6313101 35.5358332,27.6313101 C38.7746728,27.6313101 41.4,30.2664707 41.4,33.5159609 C41.4,36.7652609 38.7747316,39.4 35.5358332,39.4 Z M35.5358332,30.0544017 C33.6302965,30.0544017 32.0859058,31.6048195 32.0859058,33.5159172 C32.0859058,35.4271882 33.6300777,36.976821 35.5358332,36.976821 C37.4414614,36.976821 38.9854995,35.427185 38.9854995,33.5159172 C38.9854995,31.6048227 37.4412427,30.0544017 35.5358332,30.0544017 Z M27.614281,32.5066815 L27.614281,35.7438865 L15.071427,35.7438865 C13.5090701,35.7438865 12.2429085,34.4732009 12.2429085,32.9066815 L12.2429085,23.0065504 L15.471427,23.0065504 L15.471427,31.6873361 C15.471427,32.1402061 15.8364033,32.5066815 16.2856863,32.5066815 L27.614281,32.5066815 Z" id="Shape"></path>
        </g>
    </g>
</svg>