<?xml version="1.0" encoding="UTF-8"?>
<svg width="50px" height="50px" viewBox="0 0 50 50" version="1.1" xmlns="http://www.w3.org/2000/svg" xmlns:xlink="http://www.w3.org/1999/xlink">
    <!-- Generator: Sketch 47.1 (45422) - http://www.bohemiancoding.com/sketch -->
    <title>交易</title>
    <desc>Created with Sketch.</desc>
    <defs></defs>
    <g id="icon" stroke="none" stroke-width="1" fill="none" fill-rule="evenodd">
        <g id="交易" stroke="#000000" stroke-width="2" fill="#000000" fill-rule="nonzero">
            <g id="Group" transform="translate(10.000000, 10.000000)">
                <path d="M1.98430781,18.6086701 C1.66695219,17.4634181 1.49324174,16.2578897 1.49324174,15.0088284 C1.49324174,7.55799322 7.53636099,1.5002131 14.9691638,1.5002131 C19.4956572,1.5002131 23.4943381,3.75388144 25.9363062,7.19298602 L10.9470988,22.2219065 C10.9270553,22.2419987 10.9203741,22.2654395 10.9070118,22.2855316 C10.7366419,22.4462687 10.6330838,22.670631 10.6664896,22.9217827 C10.7165984,23.3001847 11.0372946,23.5714286 11.4080996,23.5714286 C11.4415055,23.5714286 11.4749113,23.5680799 11.5083172,23.5647312 L18.6438079,23.5479877 L18.6438079,22.7041179 L18.6438079,22.0611694 L13.2353999,22.054472 L27.8571429,7.39055872 C27.8003529,7.29679541 27.7469035,7.20303209 27.6901136,7.10926877 C27.6800918,7.07578187 27.4362291,6.66054431 27.4061638,6.64045217 C24.7136519,2.63541899 20.1537526,0 14.9725044,0 C6.70455519,0 0,6.71747204 0,15.0088284 C0,16.6898707 0.280609186,18.3005906 0.788378189,19.8108498 L1.98430781,18.6086701 Z" id="Shape"></path>
                <path d="M28.0130664,11.3942185 C28.3303079,12.5390866 28.5039559,13.7475586 28.5039559,14.9928538 C28.5039559,22.4378445 22.4663493,28.4969421 15.0362195,28.4969421 C10.5113539,28.4969421 6.51411104,26.244029 4.06968182,22.8060769 L19.056838,7.7788453 C19.2705586,7.56794853 19.3774189,7.33696635 19.3440251,7.07920364 C19.2905949,6.6674528 18.9099051,6.37621441 18.4991609,6.43647063 L11.3662363,6.43312306 L11.3662363,7.27671013 L11.3662363,7.92279071 L16.7960749,7.92613828 L3.24485392,21.5105682 L2.14285714,22.6152656 C4.74757681,27.034055 9.54293249,30 15.0328801,30 C23.2978559,30 30,23.2814315 30,14.9962014 C30,13.5835278 29.8029763,12.2210677 29.4356441,10.9289065 C29.3688564,10.677839 29.2887112,10.4368141 29.2085659,10.1957892 L28.0130664,11.3942185 Z" id="Shape"></path>
            </g>
        </g>
    </g>
</svg>