<?xml version="1.0" encoding="UTF-8"?>
<svg width="35px" height="35px" viewBox="0 0 35 35" version="1.1" xmlns="http://www.w3.org/2000/svg" xmlns:xlink="http://www.w3.org/1999/xlink">
    <!-- Generator: Sketch 48.1 (47250) - http://www.bohemiancoding.com/sketch -->
    <title>客户统计 copy</title>
    <desc>Created with Sketch.</desc>
    <defs></defs>
    <g id="Symbols" stroke="none" stroke-width="1" fill="none" fill-rule="evenodd">
        <g id="客户统计-copy">
            <g id="Group">
                <g id="Group-104" transform="translate(1.000000, 3.500000)">
                    <rect id="Rectangle-27" fill="#4680E8" x="2.94642857" y="9.52238806" width="27.6964286" height="19.0447761" rx="2.4"></rect>
                    <path d="M16.5,0 L23.5714286,0 C24.3571429,8.85332464 24.75,12.6226032 24.75,11.3078358 C24.75,13.279987 22.9031746,14.8787313 20.625,14.8787313 C18.3468254,14.8787313 16.5,13.279987 16.5,11.3078358 C16.5,12.6226032 16.5,8.85332464 16.5,0 Z" id="Combined-Shape-Copy-2" fill="#7FADF7"></path>
                    <path d="M23.5714286,0 L27.7367656,0 C28.7651396,0 29.6748206,0.673327426 29.9844962,1.66372458 C31.9948321,7.65460607 33,10.8693098 33,11.3078358 C33,13.279987 31.1531746,14.8787313 28.875,14.8787313 C26.5968254,14.8787313 24.75,13.279987 24.75,11.3078358 C24.75,12.6226032 24.3571429,8.85332464 23.5714286,0 Z" id="Combined-Shape-Copy-3" fill="#4254B6"></path>
                    <path d="M8.25,0 L15.3214286,0 C16.1071429,8.85332464 16.5,12.6226032 16.5,11.3078358 C16.5,13.279987 14.6531746,14.8787313 12.375,14.8787313 C10.0968254,14.8787313 8.25,13.279987 8.25,11.3078358 C8.25,12.6226032 8.25,8.85332464 8.25,0 Z" id="Combined-Shape-Copy-5" fill="#4254B6" transform="translate(12.375000, 7.439366) scale(-1, 1) translate(-12.375000, -7.439366) "></path>
                    <path d="M0,0 L4.16533706,0 C5.19371098,0 6.10339198,0.673327426 6.41306763,1.66372458 C8.4234035,7.65460607 9.42857143,10.8693098 9.42857143,11.3078358 C9.42857143,13.279987 7.58174602,14.8787313 5.30357143,14.8787313 C3.02539684,14.8787313 1.17857143,13.279987 1.17857143,11.3078358 C1.17857143,12.6226032 0.785714284,8.85332464 0,0 Z" id="Combined-Shape-Copy-4" fill="#7FADF7" transform="translate(4.714286, 7.439366) scale(-1, 1) translate(-4.714286, -7.439366) "></path>
                </g>
                <rect id="Rectangle" fill-opacity="0" fill="#FFFFFF" x="0" y="0" width="35" height="35"></rect>
            </g>
        </g>
    </g>
</svg>