<?xml version="1.0" encoding="UTF-8"?>
<svg width="50px" height="50px" viewBox="0 0 50 50" version="1.1" xmlns="http://www.w3.org/2000/svg" xmlns:xlink="http://www.w3.org/1999/xlink">
    <!-- Generator: Sketch 47.1 (45422) - http://www.bohemiancoding.com/sketch -->
    <title>客户地图</title>
    <desc>Created with Sketch.</desc>
    <defs></defs>
    <g id="icon" stroke="none" stroke-width="1" fill="none" fill-rule="evenodd">
        <g id="客户地图" fill-rule="nonzero" fill="#000000">
            <path d="M9,11 L19.5,17 L19.5,40 L9,34 L9,11 Z M12,32.2191007 L18,35.9463734 L18,19.7808993 L12,16.0536266 L12,32.2191007 Z M32.5,11 L32.5,34 L19.5,40 L19.5,17 L32.5,11 Z M32.5,11 L43,17 L43,40 L32.5,34 L32.5,11 Z M34,31.2191007 L40,34.9463734 L40,18.7808993 L34,15.0536266 L34,31.2191007 Z M31,14.854102 L21,19.854102 L21,36.145898 L31,31.145898 L31,14.854102 Z" id="Combined-Shape"></path>
        </g>
    </g>
</svg>