<?xml version="1.0" encoding="UTF-8"?>
<svg width="50px" height="50px" viewBox="0 0 50 50" version="1.1" xmlns="http://www.w3.org/2000/svg" xmlns:xlink="http://www.w3.org/1999/xlink">
    <!-- Generator: Sketch 47.1 (45422) - http://www.bohemiancoding.com/sketch -->
    <title>门店成员</title>
    <desc>Created with Sketch.</desc>
    <defs></defs>
    <g id="icon" stroke="none" stroke-width="1" fill="none" fill-rule="evenodd">
        <g id="门店成员" fill-rule="nonzero" fill="#000000">
            <path d="M31.0083472,24 C33.7796327,24 36,21.7666667 36,19 C36,16.2333333 33.7796327,14 31.0083472,14 C28.2370618,14 26,16.2333333 26,19 C26,21.7666667 28.2370618,24 31.0083472,24 Z M19.0083472,24 C21.7796327,24 24,21.7666667 24,19 C24,16.2333333 21.7796327,14 19.0083472,14 C16.2370618,14 14,16.2333333 14,19 C14,21.7666667 16.2370618,24 19.0083472,24 Z M18.5,26 C14.6721429,26 7,27.95 7,31.8333333 L7,36 L30,36 L30,31.8333333 C30,27.95 22.3278571,26 18.5,26 Z M31.5821832,26 C31.1091593,26 30.5708908,26.0333333 30,26.0833333 C31.8920954,27.4833333 33.2132999,29.3666667 33.2132999,31.8333333 L33.2132999,36 L43,36 L43,31.8333333 C43,27.95 35.3826851,26 31.5821832,26 Z" id="Shape"></path>
        </g>
    </g>
</svg>