<?xml version="1.0" encoding="UTF-8"?>
<svg width="100px" height="100px" viewBox="0 0 100 100" version="1.1" xmlns="http://www.w3.org/2000/svg" xmlns:xlink="http://www.w3.org/1999/xlink">
    <!-- Generator: Sketch 47.1 (45422) - http://www.bohemiancoding.com/sketch -->
    <title>货物统计</title>
    <desc>Created with Sketch.</desc>
    <defs>
        <linearGradient x1="50%" y1="0%" x2="50%" y2="100%" id="linearGradient-1">
            <stop stop-color="#3663F9" offset="0%"></stop>
            <stop stop-color="#279DF4" offset="100%"></stop>
        </linearGradient>
    </defs>
    <g id="icon" stroke="none" stroke-width="1" fill="none" fill-rule="evenodd">
        <g id="货物统计">
            <g id="Group-4" transform="translate(6.000000, 6.000000)">
                <rect id="App-Icon" fill="url(#linearGradient-1)" x="0" y="0" width="88" height="88" rx="13.5"></rect>
                <path d="M50.9431614,27.4940109 L68.5747126,27.4940109 L68.5747126,65.4942529 L18,65.4942529 L18,27.4940109 L35.6315512,27.4940109 L35.6315512,22 L50.9431614,22 L50.9431614,27.4940109 Z M38.8794685,27.4940109 L47.6952441,27.4940109 L47.6952441,25.2048397 L38.8794685,25.2048397 L38.8794685,27.4940109 Z M22.6398819,31.1566848 L22.6398819,43.5182093 C22.6398819,45.2881934 24.094024,46.723049 25.8877992,46.723049 L60.6869134,46.723049 C62.4806886,46.723049 63.9348307,45.2881934 63.9348307,43.5182093 L63.9348307,31.1566848 L22.6398819,31.1566848 Z M29.5997047,38.9398669 L33.7755984,38.9398669 L33.7755984,44.4338778 L29.5997047,44.4338778 L29.5997047,38.9398669 Z M52.7991142,38.9398669 L56.9750079,38.9398669 L56.9750079,44.4338778 L52.7991142,44.4338778 L52.7991142,38.9398669 Z M22.6398819,49.593627 L22.6398819,60.9159105 L63.9348307,60.9159105 L63.9348307,49.593627 C62.9652263,50.0993645 61.8599607,50.3857229 60.6869134,50.3857229 L25.8877992,50.3857229 C24.714752,50.3857229 23.6094863,50.0993645 22.6398819,49.593627 L22.6398819,49.593627 Z" id="Combined-Shape" fill="#FFFFFF" fill-rule="nonzero"></path>
            </g>
        </g>
    </g>
</svg>
