<?xml version="1.0" encoding="UTF-8"?>
<svg width="50px" height="50px" viewBox="0 0 50 50" version="1.1" xmlns="http://www.w3.org/2000/svg" xmlns:xlink="http://www.w3.org/1999/xlink">
    <!-- Generator: Sketch 47.1 (45422) - http://www.bohemiancoding.com/sketch -->
    <title>物流</title>
    <desc>Created with Sketch.</desc>
    <defs></defs>
    <g id="icon" stroke="none" stroke-width="1" fill="none" fill-rule="evenodd">
        <g id="物流" fill-rule="nonzero" fill="#000000">
            <path d="M30.755102,12 L30.755102,16.5034749 L40.5510204,16.5034749 L43,25.5104247 L40.5510204,25.5104247 L38.7823129,19.0054054 L30.755102,19.0054054 L30.755102,31.845029 C31.3881214,29.9085727 33.1773608,28.5127413 35.2857143,28.5127413 C37.5438559,28.5127413 39.4359297,30.1139518 39.9334378,32.2656371 L40.5510204,32.2656371 L40.5510204,25.5104247 L43,25.5104247 L43,34.7675676 L39.8686341,34.7675676 C39.2871759,36.7920153 37.455424,38.2702703 35.2857143,38.2702703 C33.1160046,38.2702703 31.2842526,36.7920153 30.7027944,34.7675676 L21.7461852,34.7675676 C21.164727,36.7920153 19.332975,38.2702703 17.1632653,38.2702703 C14.9935556,38.2702703 13.1618037,36.7920153 12.5803455,34.7675676 L9.20408163,34.7675676 L9.20408163,25.7606178 L11.6530612,25.7606178 L11.6530612,32.2656371 L12.5155418,32.2656371 C13.0130499,30.1139518 14.9051237,28.5127413 17.1632653,28.5127413 C19.4214069,28.5127413 21.3134808,30.1139518 21.8109889,32.2656371 L28.3061224,32.2656371 L28.3061224,14.5019305 L7,14.5019305 L7,12 L30.755102,12 Z M8.94594595,21.7297297 L15.7567568,21.7297297 L15.7567568,23.6756757 L8.94594595,23.6756757 L8.94594595,21.7297297 Z M7.97297297,16.8648649 L17.7027027,16.8648649 L17.7027027,18.8108108 L7.97297297,18.8108108 L7.97297297,16.8648649 Z M35.7027027,36.3243243 C37.046098,36.3243243 38.1351351,35.2352872 38.1351351,33.8918919 C38.1351351,32.5484966 37.046098,31.4594595 35.7027027,31.4594595 C34.3593074,31.4594595 33.2702703,32.5484966 33.2702703,33.8918919 C33.2702703,35.2352872 34.3593074,36.3243243 35.7027027,36.3243243 Z M17.2162162,36.3243243 C18.5596116,36.3243243 19.6486486,35.2352872 19.6486486,33.8918919 C19.6486486,32.5484966 18.5596116,31.4594595 17.2162162,31.4594595 C15.8728209,31.4594595 14.7837838,32.5484966 14.7837838,33.8918919 C14.7837838,35.2352872 15.8728209,36.3243243 17.2162162,36.3243243 Z" id="Combined-Shape"></path>
        </g>
    </g>
</svg>