<?xml version="1.0" encoding="UTF-8"?>
<svg width="40px" height="40px" viewBox="0 0 40 40" version="1.1" xmlns="http://www.w3.org/2000/svg" xmlns:xlink="http://www.w3.org/1999/xlink">
    <!-- Generator: Sketch 48.1 (47250) - http://www.bohemiancoding.com/sketch -->
    <title>时间</title>
    <desc>Created with Sketch.</desc>
    <defs></defs>
    <g id="icon" stroke="none" stroke-width="1" fill="none" fill-rule="evenodd">
        <g id="时间" fill="#000000" fill-rule="nonzero">
            <path d="M19.9872,7.2 C27.0656,7.2 32.8,12.9344 32.8,20 C32.8,27.0656 27.0656,32.8 19.9872,32.8 C12.9216,32.8 7.2,27.0656 7.2,20 C7.2,12.9344 12.9216,7.2 19.9872,7.2 Z M20,30.4 C25.746,30.4 30.4,25.746 30.4,20 C30.4,14.254 25.746,9.6 20,9.6 C14.254,9.6 9.6,14.254 9.6,20 C9.6,25.746 14.254,30.4 20,30.4 Z M20.4,13.6 L20.4,20.4852459 L26.4,23.9868852 L25.4,25.6 L18.4,21.4688525 L18.4,13.6 L20.4,13.6 Z" id="Shape"></path>
        </g>
    </g>
</svg>
