<?xml version="1.0" encoding="UTF-8"?>
<svg width="50px" height="50px" viewBox="0 0 50 50" version="1.1" xmlns="http://www.w3.org/2000/svg" xmlns:xlink="http://www.w3.org/1999/xlink">
    <!-- Generator: Sketch 47.1 (45422) - http://www.bohemiancoding.com/sketch -->
    <title>包装</title>
    <desc>Created with Sketch.</desc>
    <defs></defs>
    <g id="icon" stroke="none" stroke-width="1" fill="none" fill-rule="evenodd">
        <g id="包装" fill-rule="nonzero" fill="#000000">
            <path d="M25.5,11 L9,15.479638 L9,35.638009 L25.5,40.1176471 L42,35.638009 L42,15.479638 L25.5,11 Z M10.954429,33.6775175 L10.9411765,18.7647059 L24.5293764,22.2965498 L24.5294118,37.2058824 L10.954429,33.6775175 Z M10.9411765,16.5004354 L16.3372093,14.8823529 L30.3529412,19.0852251 L30.3529412,19.0903367 L24.9654609,20.7058824 L10.9411765,16.5004354 Z M40.045571,33.6775175 L26.4705882,37.2058824 L26.4706236,22.2965498 L30.9940864,21.1208071 L30.9940864,26.4943712 L35.5176199,25.3185596 L35.5176199,19.9450644 L40.0588235,18.7647059 L40.045571,33.6775175 Z M34.7383104,17.7941176 L34.7383104,17.7899437 L20.6470588,14.0833121 L24.9890624,12.9411765 L39.0882353,16.6498783 L34.7383104,17.7941176 Z" id="Shape"></path>
        </g>
    </g>
</svg>