<?xml version="1.0" encoding="UTF-8"?>
<svg width="50px" height="50px" viewBox="0 0 50 50" version="1.1" xmlns="http://www.w3.org/2000/svg" xmlns:xlink="http://www.w3.org/1999/xlink">
    <!-- Generator: Sketch 47.1 (45422) - http://www.bohemiancoding.com/sketch -->
    <title>窜货</title>
    <desc>Created with Sketch.</desc>
    <defs></defs>
    <g id="icon" stroke="none" stroke-width="1" fill="none" fill-rule="evenodd">
        <g id="窜货" fill-rule="nonzero" fill="#000000">
            <path d="M31,34.8443923 L31,34.8443923 L32.9409604,32.9093494 L35.0590396,35.0339058 L29.5137612,40.5622782 L23.9409604,35.0064673 L26.0590396,32.8819108 L28,34.8169538 L28,27 L23,27 L23,31 C23,34.8659932 19.8659932,38 16,38 C12.1340068,38 9,34.8659932 9,31 C9,27.1340068 12.1340068,24 16,24 L20,24 L20,14.6272353 L18.0590396,16.5622782 L15.9409604,14.4377218 L21.5137612,8.88191085 L27.0590396,14.4102833 L24.9409604,16.5348397 L23,14.5997968 L23,24 L28,24 L28,20 C28,16.1340068 31.1340068,13 35,13 C38.8659932,13 42,16.1340068 42,20 C42,23.8659932 38.8659932,27 35,27 L31,27 L31,34.8443923 Z M16,27 C13.790861,27 12,28.790861 12,31 C12,33.209139 13.790861,35 16,35 C18.209139,35 20,33.209139 20,31 L20,27 L16,27 Z M35,24 C37.209139,24 39,22.209139 39,20 C39,17.790861 37.209139,16 35,16 C32.790861,16 31,17.790861 31,20 L31,24 L35,24 Z" id="Combined-Shape" transform="translate(25.500000, 24.722095) rotate(-45.000000) translate(-25.500000, -24.722095) "></path>
        </g>
    </g>
</svg>