<?xml version="1.0" encoding="UTF-8"?>
<svg width="50px" height="50px" viewBox="0 0 50 50" version="1.1" xmlns="http://www.w3.org/2000/svg" xmlns:xlink="http://www.w3.org/1999/xlink">
    <!-- Generator: Sketch 47.1 (45422) - http://www.bohemiancoding.com/sketch -->
    <title>标签</title>
    <desc>Created with Sketch.</desc>
    <defs>
        <path d="M25.4301183,9.81702974 L41.3070909,25.6940024 C42.2309697,26.6178811 42.2309697,28.1157846 41.3070909,29.0396634 L29.0396672,41.3070871 C28.1157884,42.2309659 26.6178849,42.2309659 25.6940062,41.3070871 L9.81703355,25.4301145 C9.379571,24.9926519 9.13088001,24.4012289 9.12425992,23.7825988 L9.0001844,12.1880726 C8.98154307,10.4460898 10.3785874,9.01882193 12.1205702,9.00018059 C12.1430716,8.9999398 12.165575,8.9999398 12.1880764,9.00018059 L23.7826026,9.12425611 C24.4012327,9.1308762 24.9926557,9.37956719 25.4301183,9.81702974 Z M20.332605,15.133497 C18.896912,13.697804 16.5691938,13.697804 15.1335008,15.133497 C13.6978078,16.56919 13.6978078,18.8969082 15.1335008,20.3326011 C16.5691938,21.7682941 18.896912,21.7682941 20.332605,20.3326011 C21.7682979,18.8969082 21.7682979,16.56919 20.332605,15.133497 L20.332605,15.133497 Z" id="path-1"></path>
    </defs>
    <g id="icon" stroke="none" stroke-width="1" fill="none" fill-rule="evenodd">
        <g id="标签">
            <mask id="mask-2" fill="white">
                <use xlink:href="#path-1"></use>
            </mask>
            <use id="Combined-Shape" fill="#000000" xlink:href="#path-1"></use>
        </g>
    </g>
</svg>