<?xml version="1.0" encoding="UTF-8"?>
<svg width="50px" height="50px" viewBox="0 0 50 50" version="1.1" xmlns="http://www.w3.org/2000/svg" xmlns:xlink="http://www.w3.org/1999/xlink">
    <!-- Generator: Sketch 47.1 (45422) - http://www.bohemiancoding.com/sketch -->
    <title>假货</title>
    <desc>Created with Sketch.</desc>
    <defs></defs>
    <g id="icon" stroke="none" stroke-width="1" fill="none" fill-rule="evenodd">
        <g id="假货" fill="#000000">
            <path d="M29.9007092,16.5094095 C32.6642306,17.1516609 34.7234043,19.6296838 34.7234043,22.5886525 L34.7234043,45 L16,45 L16,22.5886525 C16,19.6296838 18.0591736,17.1516609 20.822695,16.5094095 L20.822695,8.12056738 C20.822695,6.3971256 22.2198206,5 23.9432624,5 L26.7801418,5 C28.5035836,5 29.9007092,6.3971256 29.9007092,8.12056738 L29.9007092,16.5094095 Z M24,38 L27,38 L27,35 L24,35 L24,38 Z M25.5,22 C22.46125,22 20,24.3866667 20,27.3333333 L22.75,27.3333333 C22.75,25.8666667 23.9875,24.6666667 25.5,24.6666667 C27.0125,24.6666667 28.25,25.8666667 28.25,27.3333333 C28.25,30 24.125,29.6666667 24.125,34 L26.875,34 C26.875,31 31,30.6666667 31,27.3333333 C31,24.3866667 28.53875,22 25.5,22 Z" id="Combined-Shape"></path>
        </g>
    </g>
</svg>