<?xml version="1.0" encoding="UTF-8"?>
<svg width="50px" height="50px" viewBox="0 0 50 50" version="1.1" xmlns="http://www.w3.org/2000/svg" xmlns:xlink="http://www.w3.org/1999/xlink">
    <!-- Generator: Sketch 47.1 (45422) - http://www.bohemiancoding.com/sketch -->
    <title>生产</title>
    <desc>Created with Sketch.</desc>
    <defs></defs>
    <g id="icon" stroke="none" stroke-width="1" fill="none" fill-rule="evenodd">
        <g id="生产" fill="#000000">
            <path d="M12.1565217,22.0688146 L12.1565217,38.8460789 L38.8434783,38.8460789 L38.8434783,42 L11.0086957,42 L11.0086957,41.972811 L9,41.972811 L9,20.3699348 L18.1826087,15.2534642 L18.1826087,20.3699348 L27.3652174,15.2534642 L27.3652174,20.3699348 L31.6695652,17.9715892 L31.6695652,9 L42,9 L42,41.972811 L38.8434783,41.972811 L38.8434783,12.1539211 L34.826087,12.1539211 L34.826087,18.0959479 L34.7823483,18.0959479 L34.8833648,19.7076314 L24.2086957,25.4864055 L24.2086957,20.5153642 L15.026087,25.4864055 L15.026087,20.5153642 L12.1565217,22.0688146 Z M15.026087,26.7766459 L18.1826087,26.7766459 L18.1826087,29.930567 L15.026087,29.930567 L15.026087,26.7766459 Z M15.026087,32.797768 L18.1826087,32.797768 L18.1826087,35.951689 L15.026087,35.951689 L15.026087,32.797768 Z M21.0521739,26.7766459 L24.2086957,26.7766459 L24.2086957,29.930567 L21.0521739,29.930567 L21.0521739,26.7766459 Z M21.0521739,32.797768 L24.2086957,32.797768 L24.2086957,35.951689 L21.0521739,35.951689 L21.0521739,32.797768 Z M27.0782609,26.7766459 L30.2347826,26.7766459 L30.2347826,29.930567 L27.0782609,29.930567 L27.0782609,26.7766459 Z M27.0782609,32.797768 L30.2347826,32.797768 L30.2347826,35.951689 L27.0782609,35.951689 L27.0782609,32.797768 Z M33.1043478,26.7766459 L36.2608696,26.7766459 L36.2608696,29.930567 L33.1043478,29.930567 L33.1043478,26.7766459 Z M33.1043478,32.797768 L36.2608696,32.797768 L36.2608696,35.951689 L33.1043478,35.951689 L33.1043478,32.797768 Z" id="Combined-Shape"></path>
        </g>
    </g>
</svg>