<?xml version="1.0" encoding="UTF-8"?>
<svg width="100px" height="100px" viewBox="0 0 100 100" version="1.1" xmlns="http://www.w3.org/2000/svg" xmlns:xlink="http://www.w3.org/1999/xlink">
    <!-- Generator: Sketch 47.1 (45422) - http://www.bohemiancoding.com/sketch -->
    <title>客户统计</title>
    <desc>Created with Sketch.</desc>
    <defs>
        <linearGradient x1="50%" y1="100%" x2="50%" y2="0%" id="linearGradient-1">
            <stop stop-color="#4DE578" offset="0%"></stop>
            <stop stop-color="#AAF45B" offset="100%"></stop>
        </linearGradient>
    </defs>
    <g id="icon" stroke="none" stroke-width="1" fill="none" fill-rule="evenodd">
        <g id="客户统计">
            <g id="Group-4" transform="translate(6.000000, 6.000000)">
                <rect id="App-Icon" fill="url(#linearGradient-1)" x="0" y="0" width="88" height="88" rx="13.5"></rect>
                <path d="M32.0574713,58.9333985 L55.3218391,58.9333985 L55.3218391,46.7093829 L32.0574713,46.7093829 L32.0574713,58.9333985 Z M51.7816092,28.6640203 C56.7083008,29.8171199 60.3793103,34.2661679 60.3793103,39.5787071 L60.3793103,79.816092 L27,79.816092 L27,39.5787071 C27,34.2661679 30.6710095,29.8171199 35.5977011,28.6640203 L35.5977011,13.6026738 C35.5977011,10.5084025 38.0884389,8 41.1609195,8 L46.2183908,8 C49.2908715,8 51.7816092,10.5084025 51.7816092,13.6026738 L51.7816092,28.6640203 Z M32.0574713,74.7227521 L55.3218391,74.7227521 L55.3218391,64.5360724 L32.0574713,64.5360724 L32.0574713,74.7227521 Z M40.6551724,16.1493438 L46.7241379,16.1493438 L46.7241379,13.6026738 C46.7241379,13.3213764 46.4977072,13.0933399 46.2183908,13.0933399 L41.1609195,13.0933399 C40.8816031,13.0933399 40.6551724,13.3213764 40.6551724,13.6026738 L40.6551724,16.1493438 Z M32.0574713,41.1067091 L55.3218391,41.1067091 L55.3218391,39.5787071 C55.3218391,36.7219219 53.3574021,34.261917 50.6367476,33.6251437 L46.7241379,32.7093916 L46.7241379,21.7520176 L40.6551724,21.7520176 L40.6551724,32.7093916 L36.7425627,33.6251437 C34.0219083,34.261917 32.0574713,36.7219219 32.0574713,39.5787071 L32.0574713,41.1067091 Z" id="Combined-Shape" fill="#FFFFFF"></path>
            </g>
        </g>
    </g>
</svg>