<?xml version="1.0" encoding="UTF-8"?>
<svg width="110px" height="110px" viewBox="0 0 110 110" version="1.1" xmlns="http://www.w3.org/2000/svg" xmlns:xlink="http://www.w3.org/1999/xlink">
    <!-- Generator: Sketch 47.1 (45422) - http://www.bohemiancoding.com/sketch -->
    <title>Group 4</title>
    <desc>Created with Sketch.</desc>
    <defs></defs>
    <g id="Main-page" stroke="none" stroke-width="1" fill="none" fill-rule="evenodd">
        <g id="Login" transform="translate(-655.000000, -168.000000)">
            <g id="Group" transform="translate(447.000000, 168.000000)">
                <g id="Group-2">
                    <g id="Group-4" transform="translate(208.000000, 0.000000)">
                        <rect id="Rectangle-3" fill="#FFFFFF" x="0" y="0" width="110" height="110" rx="55"></rect>
                        <g id="Page-1" transform="translate(22.000000, 30.000000)">
                            <path d="M32.9177545,50.9705197 L32.9155609,50.9705197 C24.4770706,50.9705197 17.0400873,49.2562024 10.8121249,45.8741938 C6.48135752,43.52347 2.88412772,40.4746672 0.0574633705,36.7647015 M32.9177545,45.8916021 L32.9155609,45.8916021 C25.3366082,45.8916021 18.7207308,44.3858336 13.2482419,41.414187 C9.68479345,39.4798611 6.70694666,36.9897839 4.34225306,33.978422 M32.9177545,40.812422 L32.9155609,40.812422 C22.0893882,40.812422 13.6569522,37.3969091 8.54614304,31.0738714" id="Stroke-1" stroke="#292740" stroke-width="2.3552144" stroke-linecap="round"></path>
                            <path d="M62.8697269,18.2891161 C61.989394,11.7136153 55.0088536,10.3240184 50.8097896,12.2134678 C49.5316266,8.07302007 45.218057,-0.454039966 36.4488606,0.081416295 C32.3305208,0.332917153 29.6846085,2.77925506 28.1540946,5.51365986 C27.885511,5.95752607 27.1625026,7.28702521 27.1625026,7.28702521 C24.3921698,5.91072504 19.5427492,5.04232539 15.5215416,6.89004751 C13.1340347,8.16574734 11.2592143,9.81191887 10.2627088,11.61284 C7.92223245,15.4527988 8.44492187,20.0983477 9.92682577,23.4526256 C13.940926,32.5388485 24.3043383,36.8319463 39.6408021,34.9201024 C51.0327464,33.4998005 58.7208522,29.1802842 61.5296169,24.1143134 C62.6651085,22.2452465 63.1328703,20.2663065 62.8697269,18.2891161" id="Fill-3" fill="#59C0ED"></path>
                            <path d="M62.8697269,18.2891161 C61.989394,11.7136153 55.0088536,10.3240184 50.8097896,12.2134678 C49.5316266,8.07302007 45.218057,-0.454039966 36.4488606,0.081416295 C32.3305208,0.332917153 29.6846085,2.77925506 28.1540946,5.51365986 C27.885511,5.95752607 27.1625026,7.28702521 27.1625026,7.28702521 C24.3921698,5.91072504 19.5427492,5.04232539 15.5215416,6.89004751 C13.1340347,8.16574734 11.2592143,9.81191887 10.2627088,11.61284 C7.92223245,15.4527988 8.44492187,20.0983477 9.92682577,23.4526256 C13.940926,32.5388485 24.3043383,36.8319463 39.6408021,34.9201024 C51.0327464,33.4998005 58.7208522,29.1802842 61.5296169,24.1143134 C62.6651085,22.2452465 63.1328703,20.2663065 62.8697269,18.2891161 Z" id="Stroke-5" stroke="#282740" stroke-width="2.3552144" stroke-linecap="round"></path>
                        </g>
                    </g>
                </g>
            </g>
        </g>
    </g>
</svg>