<?xml version="1.0" encoding="UTF-8"?>
<svg width="50px" height="50px" viewBox="0 0 50 50" version="1.1" xmlns="http://www.w3.org/2000/svg" xmlns:xlink="http://www.w3.org/1999/xlink">
    <!-- Generator: Sketch 47.1 (45422) - http://www.bohemiancoding.com/sketch -->
    <title>更多</title>
    <desc>Created with Sketch.</desc>
    <defs></defs>
    <g id="icon" stroke="none" stroke-width="1" fill="none" fill-rule="evenodd">
        <g id="更多" fill-rule="nonzero" fill="#000000">
            <path d="M31.694,27.8 C31.826,26.711 31.925,25.622 31.925,24.5 C31.925,23.378 31.826,22.289 31.694,21.2 L37.271,21.2 C37.535,22.256 37.7,23.3615 37.7,24.5 C37.7,25.6385 37.535,26.744 37.271,27.8 L31.694,27.8 Z M28.7735,36.974 C29.7635,35.1425 30.5225,33.1625 31.0505,31.1 L35.918,31.1 C34.3194284,33.8526555 31.7832882,35.9377962 28.7735,36.974 L28.7735,36.974 Z M28.361,27.8 L20.639,27.8 C20.474,26.711 20.375,25.622 20.375,24.5 C20.375,23.378 20.474,22.2725 20.639,21.2 L28.361,21.2 C28.5095,22.2725 28.625,23.378 28.625,24.5 C28.625,25.622 28.5095,26.711 28.361,27.8 L28.361,27.8 Z M24.5,37.634 C23.1305,35.654 22.025,33.4595 21.3485,31.1 L27.6515,31.1 C26.975,33.4595 25.8695,35.654 24.5,37.634 L24.5,37.634 Z M17.9,17.9 L13.082,17.9 C14.664112,15.1399041 17.1984132,13.0514523 20.21,12.026 C19.22,13.8575 18.4775,15.8375 17.9,17.9 L17.9,17.9 Z M13.082,31.1 L17.9,31.1 C18.4775,33.1625 19.22,35.1425 20.21,36.974 C17.2047296,35.9372481 14.6739963,33.8517363 13.082,31.1 L13.082,31.1 Z M11.729,27.8 C11.465,26.744 11.3,25.6385 11.3,24.5 C11.3,23.3615 11.465,22.256 11.729,21.2 L17.306,21.2 C17.174,22.289 17.075,23.378 17.075,24.5 C17.075,25.622 17.174,26.711 17.306,27.8 L11.729,27.8 Z M24.5,11.3495 C25.8695,13.3295 26.975,15.5405 27.6515,17.9 L21.3485,17.9 C22.025,15.5405 23.1305,13.3295 24.5,11.3495 L24.5,11.3495 Z M35.918,17.9 L31.0505,17.9 C30.5340856,15.8564053 29.7693961,13.8837282 28.7735,12.026 C31.8095,13.0655 34.334,15.161 35.918,17.9 L35.918,17.9 Z M24.5,8 C15.3755,8 8,15.425 8,24.5 C8,33.6126984 15.3873016,41 24.5,41 C28.8760721,41 33.0729116,39.2616121 36.1672619,36.1672619 C39.2616121,33.0729116 41,28.8760721 41,24.5 C41,15.3873016 33.6126984,8 24.5,8 Z" id="Shape"></path>
        </g>
    </g>
</svg>