<?xml version="1.0" encoding="UTF-8"?>
<svg width="50px" height="50px" viewBox="0 0 50 50" version="1.1" xmlns="http://www.w3.org/2000/svg" xmlns:xlink="http://www.w3.org/1999/xlink">
    <!-- Generator: Sketch 47.1 (45422) - http://www.bohemiancoding.com/sketch -->
    <title>产品</title>
    <desc>Created with Sketch.</desc>
    <defs></defs>
    <g id="icon" stroke="none" stroke-width="1" fill="none" fill-rule="evenodd">
        <g id="产品" fill="#000000">
            <g id="icon/product">
                <path d="M18.8368794,33.3687943 L31.8865248,33.3687943 L31.8865248,26.5602837 L18.8368794,26.5602837 L18.8368794,33.3687943 Z M29.9007092,16.5094095 C32.6642306,17.1516609 34.7234043,19.6296838 34.7234043,22.5886525 L34.7234043,45 L16,45 L16,22.5886525 C16,19.6296838 18.0591736,17.1516609 20.822695,16.5094095 L20.822695,8.12056738 C20.822695,6.3971256 22.2198206,5 23.9432624,5 L26.7801418,5 C28.5035836,5 29.9007092,6.3971256 29.9007092,8.12056738 L29.9007092,16.5094095 Z M18.8368794,42.1631206 L31.8865248,42.1631206 L31.8865248,36.4893617 L18.8368794,36.4893617 L18.8368794,42.1631206 Z M23.6595745,9.53900709 L27.0638298,9.53900709 L27.0638298,8.12056738 C27.0638298,7.96389085 26.9368184,7.83687943 26.7801418,7.83687943 L23.9432624,7.83687943 C23.7865859,7.83687943 23.6595745,7.96389085 23.6595745,8.12056738 L23.6595745,9.53900709 Z M18.8368794,23.4397163 L31.8865248,23.4397163 L31.8865248,22.5886525 C31.8865248,20.9974853 30.7846163,19.6273161 29.2585238,19.2726473 L27.0638298,18.7625933 L27.0638298,12.6595745 L23.6595745,12.6595745 L23.6595745,18.7625933 L21.4648805,19.2726473 C19.938788,19.6273161 18.8368794,20.9974853 18.8368794,22.5886525 L18.8368794,23.4397163 Z" id="Combined-Shape"></path>
            </g>
        </g>
    </g>
</svg>